<svg width="364" height="130" viewBox="0 0 364 130" fill="none" xmlns="http://www.w3.org/2000/svg">
<g filter="url(#filter0_d)">
<rect width="360" height="130" fill="#E6E6E6"/>
</g>
<path d="M154.845 65.192C153.96 65.192 153.101 65.0747 152.269 64.84C151.448 64.5947 150.786 64.28 150.285 63.896L151.165 61.944C151.645 62.296 152.216 62.5787 152.877 62.792C153.538 63.0053 154.2 63.112 154.861 63.112C155.597 63.112 156.141 63.0053 156.493 62.792C156.845 62.568 157.021 62.2747 157.021 61.912C157.021 61.6453 156.914 61.4267 156.701 61.256C156.498 61.0747 156.232 60.9307 155.901 60.824C155.581 60.7173 155.144 60.6 154.589 60.472C153.736 60.2693 153.037 60.0667 152.493 59.864C151.949 59.6613 151.48 59.336 151.085 58.888C150.701 58.44 150.509 57.8427 150.509 57.096C150.509 56.4453 150.685 55.8587 151.037 55.336C151.389 54.8027 151.917 54.3813 152.621 54.072C153.336 53.7627 154.205 53.608 155.229 53.608C155.944 53.608 156.642 53.6933 157.325 53.864C158.008 54.0347 158.605 54.28 159.117 54.6L158.317 56.568C157.282 55.9813 156.248 55.688 155.213 55.688C154.488 55.688 153.949 55.8053 153.597 56.04C153.256 56.2747 153.085 56.584 153.085 56.968C153.085 57.352 153.282 57.64 153.677 57.832C154.082 58.0133 154.696 58.1947 155.517 58.376C156.37 58.5787 157.069 58.7813 157.613 58.984C158.157 59.1867 158.621 59.5067 159.005 59.944C159.4 60.3813 159.597 60.9733 159.597 61.72C159.597 62.36 159.416 62.9467 159.053 63.48C158.701 64.0027 158.168 64.4187 157.453 64.728C156.738 65.0373 155.869 65.192 154.845 65.192ZM170.04 62.92V65H161.368V53.8H169.832V55.88H163.944V58.312H169.144V60.328H163.944V62.92H170.04ZM179.639 59.224H182.007V63.768C181.399 64.2267 180.695 64.5787 179.895 64.824C179.095 65.0693 178.29 65.192 177.479 65.192C176.316 65.192 175.271 64.9467 174.343 64.456C173.415 63.9547 172.684 63.2667 172.151 62.392C171.628 61.5067 171.367 60.5093 171.367 59.4C171.367 58.2907 171.628 57.2987 172.151 56.424C172.684 55.5387 173.42 54.8507 174.359 54.36C175.298 53.8587 176.354 53.608 177.527 53.608C178.508 53.608 179.399 53.7733 180.199 54.104C180.999 54.4347 181.671 54.9147 182.215 55.544L180.551 57.08C179.751 56.2373 178.786 55.816 177.655 55.816C176.94 55.816 176.306 55.9653 175.751 56.264C175.196 56.5627 174.764 56.984 174.455 57.528C174.146 58.072 173.991 58.696 173.991 59.4C173.991 60.0933 174.146 60.712 174.455 61.256C174.764 61.8 175.191 62.2267 175.735 62.536C176.29 62.8347 176.919 62.984 177.623 62.984C178.37 62.984 179.042 62.824 179.639 62.504V59.224ZM189.391 65.192C187.791 65.192 186.543 64.7493 185.647 63.864C184.762 62.9787 184.319 61.7147 184.319 60.072V53.8H186.911V59.976C186.911 61.9813 187.743 62.984 189.407 62.984C190.218 62.984 190.836 62.744 191.263 62.264C191.69 61.7733 191.903 61.0107 191.903 59.976V53.8H194.463V60.072C194.463 61.7147 194.015 62.9787 193.119 63.864C192.234 64.7493 190.991 65.192 189.391 65.192ZM197.024 53.8H199.616V65H197.024V53.8ZM212.466 65L212.45 58.28L209.154 63.816H207.986L204.706 58.424V65H202.274V53.8H204.418L208.61 60.76L212.738 53.8H214.866L214.898 65H212.466ZM217.556 53.8H220.148V65H217.556V53.8ZM231.478 62.92V65H222.806V53.8H231.27V55.88H225.382V58.312H230.582V60.328H225.382V62.92H231.478ZM243.812 53.8V65H241.684L236.1 58.2V65H233.54V53.8H235.684L241.252 60.6V53.8H243.812ZM248.782 55.912H245.198V53.8H254.958V55.912H251.374V65H248.782V55.912ZM261.62 65.192C260.457 65.192 259.407 64.9413 258.468 64.44C257.54 63.9387 256.809 63.2507 256.276 62.376C255.753 61.4907 255.492 60.4987 255.492 59.4C255.492 58.3013 255.753 57.3147 256.276 56.44C256.809 55.5547 257.54 54.8613 258.468 54.36C259.407 53.8587 260.457 53.608 261.62 53.608C262.783 53.608 263.828 53.8587 264.756 54.36C265.684 54.8613 266.415 55.5547 266.948 56.44C267.481 57.3147 267.748 58.3013 267.748 59.4C267.748 60.4987 267.481 61.4907 266.948 62.376C266.415 63.2507 265.684 63.9387 264.756 64.44C263.828 64.9413 262.783 65.192 261.62 65.192ZM261.62 62.984C262.281 62.984 262.879 62.8347 263.412 62.536C263.945 62.2267 264.361 61.8 264.66 61.256C264.969 60.712 265.124 60.0933 265.124 59.4C265.124 58.7067 264.969 58.088 264.66 57.544C264.361 57 263.945 56.5787 263.412 56.28C262.879 55.9707 262.281 55.816 261.62 55.816C260.959 55.816 260.361 55.9707 259.828 56.28C259.295 56.5787 258.873 57 258.564 57.544C258.265 58.088 258.116 58.7067 258.116 59.4C258.116 60.0933 258.265 60.712 258.564 61.256C258.873 61.8 259.295 62.2267 259.828 62.536C260.361 62.8347 260.959 62.984 261.62 62.984ZM151.165 75.8H156.253C157.469 75.8 158.541 76.0347 159.469 76.504C160.408 76.9627 161.133 77.6133 161.645 78.456C162.168 79.2987 162.429 80.28 162.429 81.4C162.429 82.52 162.168 83.5013 161.645 84.344C161.133 85.1867 160.408 85.8427 159.469 86.312C158.541 86.7707 157.469 87 156.253 87H151.165V75.8ZM156.125 84.872C157.245 84.872 158.136 84.5627 158.797 83.944C159.469 83.3147 159.805 82.4667 159.805 81.4C159.805 80.3333 159.469 79.4907 158.797 78.872C158.136 78.2427 157.245 77.928 156.125 77.928H153.757V84.872H156.125ZM173.056 84.92V87H164.384V75.8H172.848V77.88H166.96V80.312H172.16V82.328H166.96V84.92H173.056ZM185.009 87.192C183.868 87.192 182.833 86.9467 181.905 86.456C180.988 85.9547 180.263 85.2667 179.729 84.392C179.207 83.5067 178.945 82.5093 178.945 81.4C178.945 80.2907 179.207 79.2987 179.729 78.424C180.263 77.5387 180.988 76.8507 181.905 76.36C182.833 75.8587 183.873 75.608 185.025 75.608C185.996 75.608 186.871 75.7787 187.649 76.12C188.439 76.4613 189.1 76.952 189.633 77.592L187.969 79.128C187.212 78.2533 186.273 77.816 185.153 77.816C184.46 77.816 183.841 77.9707 183.297 78.28C182.753 78.5787 182.327 79 182.017 79.544C181.719 80.088 181.569 80.7067 181.569 81.4C181.569 82.0933 181.719 82.712 182.017 83.256C182.327 83.8 182.753 84.2267 183.297 84.536C183.841 84.8347 184.46 84.984 185.153 84.984C186.273 84.984 187.212 84.5413 187.969 83.656L189.633 85.192C189.1 85.8427 188.439 86.3387 187.649 86.68C186.86 87.0213 185.98 87.192 185.009 87.192ZM196.573 87.192C195.411 87.192 194.36 86.9413 193.421 86.44C192.493 85.9387 191.763 85.2507 191.229 84.376C190.707 83.4907 190.445 82.4987 190.445 81.4C190.445 80.3013 190.707 79.3147 191.229 78.44C191.763 77.5547 192.493 76.8613 193.421 76.36C194.36 75.8587 195.411 75.608 196.573 75.608C197.736 75.608 198.781 75.8587 199.709 76.36C200.637 76.8613 201.368 77.5547 201.901 78.44C202.435 79.3147 202.701 80.3013 202.701 81.4C202.701 82.4987 202.435 83.4907 201.901 84.376C201.368 85.2507 200.637 85.9387 199.709 86.44C198.781 86.9413 197.736 87.192 196.573 87.192ZM196.573 84.984C197.235 84.984 197.832 84.8347 198.365 84.536C198.899 84.2267 199.315 83.8 199.613 83.256C199.923 82.712 200.077 82.0933 200.077 81.4C200.077 80.7067 199.923 80.088 199.613 79.544C199.315 79 198.899 78.5787 198.365 78.28C197.832 77.9707 197.235 77.816 196.573 77.816C195.912 77.816 195.315 77.9707 194.781 78.28C194.248 78.5787 193.827 79 193.517 79.544C193.219 80.088 193.069 80.7067 193.069 81.4C193.069 82.0933 193.219 82.712 193.517 83.256C193.827 83.8 194.248 84.2267 194.781 84.536C195.315 84.8347 195.912 84.984 196.573 84.984ZM214.841 87L214.825 80.28L211.529 85.816H210.361L207.081 80.424V87H204.649V75.8H206.793L210.985 82.76L215.113 75.8H217.241L217.273 87H214.841ZM224.779 75.8C225.771 75.8 226.629 75.9653 227.355 76.296C228.091 76.6267 228.656 77.096 229.051 77.704C229.445 78.312 229.643 79.032 229.643 79.864C229.643 80.6853 229.445 81.4053 229.051 82.024C228.656 82.632 228.091 83.1013 227.355 83.432C226.629 83.752 225.771 83.912 224.779 83.912H222.523V87H219.931V75.8H224.779ZM224.635 81.8C225.413 81.8 226.005 81.6347 226.411 81.304C226.816 80.9627 227.019 80.4827 227.019 79.864C227.019 79.2347 226.816 78.7547 226.411 78.424C226.005 78.0827 225.413 77.912 224.635 77.912H222.523V81.8H224.635ZM238.629 87L236.469 83.88H236.341H234.085V87H231.493V75.8H236.341C237.333 75.8 238.192 75.9653 238.917 76.296C239.653 76.6267 240.218 77.096 240.613 77.704C241.008 78.312 241.205 79.032 241.205 79.864C241.205 80.696 241.002 81.416 240.597 82.024C240.202 82.6213 239.637 83.08 238.901 83.4L241.413 87H238.629ZM238.581 79.864C238.581 79.2347 238.378 78.7547 237.973 78.424C237.568 78.0827 236.976 77.912 236.197 77.912H234.085V81.816H236.197C236.976 81.816 237.568 81.6453 237.973 81.304C238.378 80.9627 238.581 80.4827 238.581 79.864ZM250.635 84.6H245.435L244.443 87H241.787L246.779 75.8H249.339L254.347 87H251.627L250.635 84.6ZM249.819 82.632L248.043 78.344L246.267 82.632H249.819Z" fill="#000500"/>
<path fill-rule="evenodd" clip-rule="evenodd" d="M82.6393 94.28C85.97 94.28 88.8035 92.1513 89.8536 89.1803H111.963C118.3 89.1803 123.437 84.043 123.437 77.706C123.437 71.3689 118.3 66.2316 111.963 66.2316H83.9143C80.3937 66.2316 77.5396 63.3776 77.5396 59.857C77.5396 56.3364 80.3937 53.4824 83.9143 53.4824H91.7826L88.4859 56.7791L92.0919 60.3851L101.544 50.9325L92.0919 41.48L88.4859 45.086L91.7826 48.3827H83.9143C77.5772 48.3827 72.4399 53.5199 72.4399 59.857C72.4399 66.1941 77.5772 71.3313 83.9143 71.3313H111.963C115.483 71.3313 118.337 74.1853 118.337 77.706C118.337 81.2266 115.483 84.0806 111.963 84.0806H89.8536C88.8035 81.1095 85.97 78.9809 82.6393 78.9809C78.4146 78.9809 74.9898 82.4057 74.9898 86.6304C74.9898 90.8552 78.4146 94.28 82.6393 94.28ZM80.0894 86.6303C80.0894 85.2221 81.231 84.0805 82.6392 84.0805C84.0475 84.0805 85.1891 85.2221 85.1891 86.6303C85.1891 88.0386 84.0475 89.1802 82.6392 89.1802C81.231 89.1802 80.0894 88.0386 80.0894 86.6303ZM113.238 43.2827C117.462 43.2827 120.887 46.7075 120.887 50.9322C120.887 55.157 117.462 58.5818 113.238 58.5818C109.013 58.5818 105.588 55.157 105.588 50.9322C105.588 46.7075 109.013 43.2827 113.238 43.2827ZM110.688 50.9323C110.688 49.5241 111.829 48.3825 113.238 48.3825C114.646 48.3825 115.788 49.5241 115.788 50.9323C115.788 52.3406 114.646 53.4822 113.238 53.4822C111.829 53.4822 110.688 52.3406 110.688 50.9323Z" fill="#000500"/>
<defs>
<filter id="filter0_d" x="-4" y="0" width="368" height="138" filterUnits="userSpaceOnUse" color-interpolation-filters="sRGB">
<feFlood flood-opacity="0" result="BackgroundImageFix"/>
<feColorMatrix in="SourceAlpha" type="matrix" values="0 0 0 0 0 0 0 0 0 0 0 0 0 0 0 0 0 0 127 0"/>
<feOffset dy="4"/>
<feGaussianBlur stdDeviation="2"/>
<feColorMatrix type="matrix" values="0 0 0 0 0 0 0 0 0 0 0 0 0 0 0 0 0 0 0.25 0"/>
<feBlend mode="normal" in2="BackgroundImageFix" result="effect1_dropShadow"/>
<feBlend mode="normal" in="SourceGraphic" in2="effect1_dropShadow" result="shape"/>
</filter>
</defs>
</svg>
