<svg width="368" height="130" viewBox="0 0 368 130" fill="none" xmlns="http://www.w3.org/2000/svg">
<g filter="url(#filter0_d)">
<rect x="4" width="360" height="130" fill="#E6E6E6"/>
</g>
<path d="M177.637 64.4814L177.621 57.7614L174.325 63.2974H173.157L169.877 57.9054V64.4814H167.445V53.2814H169.589L173.781 60.2414L177.909 53.2814H180.037L180.069 64.4814H177.637ZM191.398 62.4014V64.4814H182.726V53.2814H191.19V55.3614H185.302V57.7934H190.502V59.8094H185.302V62.4014H191.398ZM187.67 50.0654H190.358L187.462 52.3694H185.51L187.67 50.0654ZM195.78 55.3934H192.196V53.2814H201.956V55.3934H198.372V64.4814H195.78V55.3934ZM208.619 64.6734C207.456 64.6734 206.405 64.4228 205.467 63.9214C204.539 63.4201 203.808 62.7321 203.275 61.8574C202.752 60.9721 202.491 59.9801 202.491 58.8814C202.491 57.7828 202.752 56.7961 203.275 55.9214C203.808 55.0361 204.539 54.3428 205.467 53.8414C206.405 53.3401 207.456 53.0894 208.619 53.0894C209.781 53.0894 210.827 53.3401 211.755 53.8414C212.683 54.3428 213.413 55.0361 213.947 55.9214C214.48 56.7961 214.747 57.7828 214.747 58.8814C214.747 59.9801 214.48 60.9721 213.947 61.8574C213.413 62.7321 212.683 63.4201 211.755 63.9214C210.827 64.4228 209.781 64.6734 208.619 64.6734ZM208.619 62.4654C209.28 62.4654 209.877 62.3161 210.411 62.0174C210.944 61.7081 211.36 61.2814 211.659 60.7374C211.968 60.1934 212.123 59.5748 212.123 58.8814C212.123 58.1881 211.968 57.5694 211.659 57.0254C211.36 56.4814 210.944 56.0601 210.411 55.7614C209.877 55.4521 209.28 55.2974 208.619 55.2974C207.957 55.2974 207.36 55.4521 206.827 55.7614C206.293 56.0601 205.872 56.4814 205.563 57.0254C205.264 57.5694 205.115 58.1881 205.115 58.8814C205.115 59.5748 205.264 60.1934 205.563 60.7374C205.872 61.2814 206.293 61.7081 206.827 62.0174C207.36 62.3161 207.957 62.4654 208.619 62.4654ZM216.695 53.2814H221.783C222.999 53.2814 224.071 53.5161 224.999 53.9854C225.937 54.4441 226.663 55.0948 227.175 55.9374C227.697 56.7801 227.959 57.7614 227.959 58.8814C227.959 60.0014 227.697 60.9828 227.175 61.8254C226.663 62.6681 225.937 63.3241 224.999 63.7934C224.071 64.2521 222.999 64.4814 221.783 64.4814H216.695V53.2814ZM221.655 62.3534C222.775 62.3534 223.665 62.0441 224.327 61.4254C224.999 60.7961 225.335 59.9481 225.335 58.8814C225.335 57.8148 224.999 56.9721 224.327 56.3534C223.665 55.7241 222.775 55.4094 221.655 55.4094H219.287V62.3534H221.655ZM235.337 64.6734C234.175 64.6734 233.124 64.4228 232.185 63.9214C231.257 63.4201 230.527 62.7321 229.993 61.8574C229.471 60.9721 229.209 59.9801 229.209 58.8814C229.209 57.7828 229.471 56.7961 229.993 55.9214C230.527 55.0361 231.257 54.3428 232.185 53.8414C233.124 53.3401 234.175 53.0894 235.337 53.0894C236.5 53.0894 237.545 53.3401 238.473 53.8414C239.401 54.3428 240.132 55.0361 240.665 55.9214C241.199 56.7961 241.465 57.7828 241.465 58.8814C241.465 59.9801 241.199 60.9721 240.665 61.8574C240.132 62.7321 239.401 63.4201 238.473 63.9214C237.545 64.4228 236.5 64.6734 235.337 64.6734ZM235.337 62.4654C235.999 62.4654 236.596 62.3161 237.129 62.0174C237.663 61.7081 238.079 61.2814 238.377 60.7374C238.687 60.1934 238.841 59.5748 238.841 58.8814C238.841 58.1881 238.687 57.5694 238.377 57.0254C238.079 56.4814 237.663 56.0601 237.129 55.7614C236.596 55.4521 235.999 55.2974 235.337 55.2974C234.676 55.2974 234.079 55.4521 233.545 55.7614C233.012 56.0601 232.591 56.4814 232.281 57.0254C231.983 57.5694 231.833 58.1881 231.833 58.8814C231.833 59.5748 231.983 60.1934 232.281 60.7374C232.591 61.2814 233.012 61.7081 233.545 62.0174C234.079 62.3161 234.676 62.4654 235.337 62.4654ZM247.093 64.6734C246.208 64.6734 245.349 64.5561 244.517 64.3214C243.696 64.0761 243.035 63.7614 242.533 63.3774L243.413 61.4254C243.893 61.7774 244.464 62.0601 245.125 62.2734C245.787 62.4868 246.448 62.5934 247.109 62.5934C247.845 62.5934 248.389 62.4868 248.741 62.2734C249.093 62.0494 249.269 61.7561 249.269 61.3934C249.269 61.1268 249.163 60.9081 248.949 60.7374C248.747 60.5561 248.48 60.4121 248.149 60.3054C247.829 60.1988 247.392 60.0814 246.837 59.9534C245.984 59.7508 245.285 59.5481 244.741 59.3454C244.197 59.1428 243.728 58.8174 243.333 58.3694C242.949 57.9214 242.757 57.3241 242.757 56.5774C242.757 55.9268 242.933 55.3401 243.285 54.8174C243.637 54.2841 244.165 53.8628 244.869 53.5534C245.584 53.2441 246.453 53.0894 247.477 53.0894C248.192 53.0894 248.891 53.1748 249.573 53.3454C250.256 53.5161 250.853 53.7614 251.365 54.0814L250.565 56.0494C249.531 55.4628 248.496 55.1694 247.461 55.1694C246.736 55.1694 246.197 55.2868 245.845 55.5214C245.504 55.7561 245.333 56.0654 245.333 56.4494C245.333 56.8334 245.531 57.1214 245.925 57.3134C246.331 57.4948 246.944 57.6761 247.765 57.8574C248.619 58.0601 249.317 58.2628 249.861 58.4654C250.405 58.6681 250.869 58.9881 251.253 59.4254C251.648 59.8628 251.845 60.4548 251.845 61.2014C251.845 61.8414 251.664 62.4281 251.301 62.9614C250.949 63.4841 250.416 63.9001 249.701 64.2094C248.987 64.5188 248.117 64.6734 247.093 64.6734ZM167.445 75.2814H172.533C173.749 75.2814 174.821 75.5161 175.749 75.9854C176.687 76.4441 177.413 77.0948 177.925 77.9374C178.447 78.7801 178.709 79.7614 178.709 80.8814C178.709 82.0014 178.447 82.9828 177.925 83.8254C177.413 84.6681 176.687 85.3241 175.749 85.7934C174.821 86.2521 173.749 86.4814 172.533 86.4814H167.445V75.2814ZM172.405 84.3534C173.525 84.3534 174.415 84.0441 175.077 83.4254C175.749 82.7961 176.085 81.9481 176.085 80.8814C176.085 79.8148 175.749 78.9721 175.077 78.3534C174.415 77.7241 173.525 77.4094 172.405 77.4094H170.037V84.3534H172.405ZM189.335 84.4014V86.4814H180.663V75.2814H189.127V77.3614H183.239V79.7934H188.439V81.8094H183.239V84.4014H189.335ZM200.777 75.2814C201.769 75.2814 202.628 75.4468 203.353 75.7774C204.089 76.1081 204.654 76.5774 205.049 77.1854C205.444 77.7934 205.641 78.5134 205.641 79.3454C205.641 80.1668 205.444 80.8868 205.049 81.5054C204.654 82.1134 204.089 82.5828 203.353 82.9134C202.628 83.2334 201.769 83.3934 200.777 83.3934H198.521V86.4814H195.929V75.2814H200.777ZM200.633 81.2814C201.412 81.2814 202.004 81.1161 202.409 80.7854C202.814 80.4441 203.017 79.9641 203.017 79.3454C203.017 78.7161 202.814 78.2361 202.409 77.9054C202.004 77.5641 201.412 77.3934 200.633 77.3934H198.521V81.2814H200.633ZM214.305 84.0814H209.105L208.113 86.4814H205.457L210.449 75.2814H213.009L218.017 86.4814H215.297L214.305 84.0814ZM213.489 82.1134L211.713 77.8254L209.937 82.1134H213.489ZM226.591 80.7054H228.959V85.2494C228.351 85.7081 227.647 86.0601 226.847 86.3054C226.047 86.5508 225.241 86.6734 224.431 86.6734C223.268 86.6734 222.223 86.4281 221.295 85.9374C220.367 85.4361 219.636 84.7481 219.103 83.8734C218.58 82.9881 218.319 81.9908 218.319 80.8814C218.319 79.7721 218.58 78.7801 219.103 77.9054C219.636 77.0201 220.372 76.3321 221.311 75.8414C222.249 75.3401 223.305 75.0894 224.479 75.0894C225.46 75.0894 226.351 75.2548 227.151 75.5854C227.951 75.9161 228.623 76.3961 229.167 77.0254L227.503 78.5614C226.703 77.7188 225.737 77.2974 224.607 77.2974C223.892 77.2974 223.257 77.4468 222.703 77.7454C222.148 78.0441 221.716 78.4654 221.407 79.0094C221.097 79.5534 220.943 80.1774 220.943 80.8814C220.943 81.5748 221.097 82.1934 221.407 82.7374C221.716 83.2814 222.143 83.7081 222.687 84.0174C223.241 84.3161 223.871 84.4654 224.575 84.4654C225.321 84.4654 225.993 84.3054 226.591 83.9854V80.7054ZM236.791 86.6734C235.628 86.6734 234.577 86.4228 233.639 85.9214C232.711 85.4201 231.98 84.7321 231.447 83.8574C230.924 82.9721 230.663 81.9801 230.663 80.8814C230.663 79.7828 230.924 78.7961 231.447 77.9214C231.98 77.0361 232.711 76.3428 233.639 75.8414C234.577 75.3401 235.628 75.0894 236.791 75.0894C237.953 75.0894 238.999 75.3401 239.927 75.8414C240.855 76.3428 241.585 77.0361 242.119 77.9214C242.652 78.7961 242.919 79.7828 242.919 80.8814C242.919 81.9801 242.652 82.9721 242.119 83.8574C241.585 84.7321 240.855 85.4201 239.927 85.9214C238.999 86.4228 237.953 86.6734 236.791 86.6734ZM236.791 84.4654C237.452 84.4654 238.049 84.3161 238.583 84.0174C239.116 83.7081 239.532 83.2814 239.831 82.7374C240.14 82.1934 240.295 81.5748 240.295 80.8814C240.295 80.1881 240.14 79.5694 239.831 79.0254C239.532 78.4814 239.116 78.0601 238.583 77.7614C238.049 77.4521 237.452 77.2974 236.791 77.2974C236.129 77.2974 235.532 77.4521 234.999 77.7614C234.465 78.0601 234.044 78.4814 233.735 79.0254C233.436 79.5694 233.287 80.1881 233.287 80.8814C233.287 81.5748 233.436 82.1934 233.735 82.7374C234.044 83.2814 234.465 83.7081 234.999 84.0174C235.532 84.3161 236.129 84.4654 236.791 84.4654Z" fill="#000500"/>
<path fill-rule="evenodd" clip-rule="evenodd" d="M133.557 51.7211H122.703V46.3434C122.703 43.2276 120.309 40.6396 117.277 40.6396H90.1432C87.1104 40.6396 84.7166 43.2276 84.7166 46.3434V90.3433C84.7166 93.4591 87.1104 96.0471 90.1432 96.0471H117.277C120.309 96.0471 122.703 93.4591 122.703 90.3433V84.9656H133.557C136.554 84.9656 138.983 82.4849 138.983 79.4248V57.2619C138.983 54.2018 136.554 51.7211 133.557 51.7211ZM122.703 65.5729H133.556V79.4247H122.703V65.5729ZM117.277 90.343V46.343C117.277 46.2878 117.27 46.2494 117.265 46.2239C117.259 46.192 117.257 46.1801 117.277 46.1801H90.1433C90.1632 46.1801 90.161 46.192 90.1551 46.2239C90.1504 46.2494 90.1433 46.2878 90.1433 46.343V90.343C90.1433 90.3983 90.1504 90.4366 90.1551 90.4622C90.161 90.4941 90.1632 90.506 90.1433 90.506H117.277C117.257 90.506 117.259 90.4941 117.265 90.4622C117.27 90.4366 117.277 90.3983 117.277 90.343ZM92.8567 82.1952V87.7359H98.2834V82.1952H92.8567ZM100.997 87.7359V82.1952H106.423V87.7359H100.997ZM109.137 82.1952V87.7359H114.563V82.1952H109.137ZM92.8567 79.4247V73.8839H98.2834V79.4247H92.8567ZM100.997 73.8839V79.4247H106.423V73.8839H100.997ZM109.137 79.4247V73.8839H114.563V79.4247H109.137ZM114.563 71.1135V48.9506H92.8567V71.1135H114.563ZM98.2833 54.4913V65.5728H109.137V54.4913H98.2833ZM133.556 57.2619V60.0322H122.703V57.2619H133.556Z" fill="#000500"/>
<defs>
<filter id="filter0_d" x="0" y="0" width="368" height="138" filterUnits="userSpaceOnUse" color-interpolation-filters="sRGB">
<feFlood flood-opacity="0" result="BackgroundImageFix"/>
<feColorMatrix in="SourceAlpha" type="matrix" values="0 0 0 0 0 0 0 0 0 0 0 0 0 0 0 0 0 0 127 0"/>
<feOffset dy="4"/>
<feGaussianBlur stdDeviation="2"/>
<feColorMatrix type="matrix" values="0 0 0 0 0 0 0 0 0 0 0 0 0 0 0 0 0 0 0.25 0"/>
<feBlend mode="normal" in2="BackgroundImageFix" result="effect1_dropShadow"/>
<feBlend mode="normal" in="SourceGraphic" in2="effect1_dropShadow" result="shape"/>
</filter>
</defs>
</svg>
