<svg width="368" height="130" viewBox="0 0 368 130" fill="none" xmlns="http://www.w3.org/2000/svg">
<g filter="url(#filter0_d)">
<rect x="4" width="360" height="130" fill="#E6E6E6"/>
</g>
<path d="M175.104 62.6H169.904L168.912 65H166.256L171.248 53.8H173.808L178.816 65H176.096L175.104 62.6ZM174.288 60.632L172.512 56.344L170.736 60.632H174.288ZM183.658 65.192C182.773 65.192 181.914 65.0747 181.082 64.84C180.261 64.5947 179.599 64.28 179.098 63.896L179.978 61.944C180.458 62.296 181.029 62.5787 181.69 62.792C182.351 63.0053 183.013 63.112 183.674 63.112C184.41 63.112 184.954 63.0053 185.306 62.792C185.658 62.568 185.834 62.2747 185.834 61.912C185.834 61.6453 185.727 61.4267 185.514 61.256C185.311 61.0747 185.045 60.9307 184.714 60.824C184.394 60.7173 183.957 60.6 183.402 60.472C182.549 60.2693 181.85 60.0667 181.306 59.864C180.762 59.6613 180.293 59.336 179.898 58.888C179.514 58.44 179.322 57.8427 179.322 57.096C179.322 56.4453 179.498 55.8587 179.85 55.336C180.202 54.8027 180.73 54.3813 181.434 54.072C182.149 53.7627 183.018 53.608 184.042 53.608C184.757 53.608 185.455 53.6933 186.138 53.864C186.821 54.0347 187.418 54.28 187.93 54.6L187.13 56.568C186.095 55.9813 185.061 55.688 184.026 55.688C183.301 55.688 182.762 55.8053 182.41 56.04C182.069 56.2747 181.898 56.584 181.898 56.968C181.898 57.352 182.095 57.64 182.49 57.832C182.895 58.0133 183.509 58.1947 184.33 58.376C185.183 58.5787 185.882 58.7813 186.426 58.984C186.97 59.1867 187.434 59.5067 187.818 59.944C188.213 60.3813 188.41 60.9733 188.41 61.72C188.41 62.36 188.229 62.9467 187.866 63.48C187.514 64.0027 186.981 64.4187 186.266 64.728C185.551 65.0373 184.682 65.192 183.658 65.192ZM198.853 62.92V65H190.181V53.8H198.645V55.88H192.757V58.312H197.957V60.328H192.757V62.92H198.853ZM204.596 65.192C203.71 65.192 202.852 65.0747 202.02 64.84C201.198 64.5947 200.537 64.28 200.036 63.896L200.916 61.944C201.396 62.296 201.966 62.5787 202.628 62.792C203.289 63.0053 203.95 63.112 204.612 63.112C205.348 63.112 205.892 63.0053 206.244 62.792C206.596 62.568 206.772 62.2747 206.772 61.912C206.772 61.6453 206.665 61.4267 206.452 61.256C206.249 61.0747 205.982 60.9307 205.652 60.824C205.332 60.7173 204.894 60.6 204.34 60.472C203.486 60.2693 202.788 60.0667 202.244 59.864C201.7 59.6613 201.23 59.336 200.836 58.888C200.452 58.44 200.26 57.8427 200.26 57.096C200.26 56.4453 200.436 55.8587 200.788 55.336C201.14 54.8027 201.668 54.3813 202.372 54.072C203.086 53.7627 203.956 53.608 204.98 53.608C205.694 53.608 206.393 53.6933 207.076 53.864C207.758 54.0347 208.356 54.28 208.868 54.6L208.068 56.568C207.033 55.9813 205.998 55.688 204.964 55.688C204.238 55.688 203.7 55.8053 203.348 56.04C203.006 56.2747 202.836 56.584 202.836 56.968C202.836 57.352 203.033 57.64 203.428 57.832C203.833 58.0133 204.446 58.1947 205.268 58.376C206.121 58.5787 206.82 58.7813 207.364 58.984C207.908 59.1867 208.372 59.5067 208.756 59.944C209.15 60.3813 209.348 60.9733 209.348 61.72C209.348 62.36 209.166 62.9467 208.804 63.48C208.452 64.0027 207.918 64.4187 207.204 64.728C206.489 65.0373 205.62 65.192 204.596 65.192ZM216.543 65.192C215.38 65.192 214.329 64.9413 213.391 64.44C212.463 63.9387 211.732 63.2507 211.199 62.376C210.676 61.4907 210.415 60.4987 210.415 59.4C210.415 58.3013 210.676 57.3147 211.199 56.44C211.732 55.5547 212.463 54.8613 213.391 54.36C214.329 53.8587 215.38 53.608 216.543 53.608C217.705 53.608 218.751 53.8587 219.679 54.36C220.607 54.8613 221.337 55.5547 221.871 56.44C222.404 57.3147 222.671 58.3013 222.671 59.4C222.671 60.4987 222.404 61.4907 221.871 62.376C221.337 63.2507 220.607 63.9387 219.679 64.44C218.751 64.9413 217.705 65.192 216.543 65.192ZM216.543 62.984C217.204 62.984 217.801 62.8347 218.335 62.536C218.868 62.2267 219.284 61.8 219.583 61.256C219.892 60.712 220.047 60.0933 220.047 59.4C220.047 58.7067 219.892 58.088 219.583 57.544C219.284 57 218.868 56.5787 218.335 56.28C217.801 55.9707 217.204 55.816 216.543 55.816C215.881 55.816 215.284 55.9707 214.751 56.28C214.217 56.5787 213.796 57 213.487 57.544C213.188 58.088 213.039 58.7067 213.039 59.4C213.039 60.0933 213.188 60.712 213.487 61.256C213.796 61.8 214.217 62.2267 214.751 62.536C215.284 62.8347 215.881 62.984 216.543 62.984ZM231.755 65L229.595 61.88H229.467H227.211V65H224.619V53.8H229.467C230.459 53.8 231.317 53.9653 232.043 54.296C232.779 54.6267 233.344 55.096 233.739 55.704C234.133 56.312 234.331 57.032 234.331 57.864C234.331 58.696 234.128 59.416 233.723 60.024C233.328 60.6213 232.763 61.08 232.027 61.4L234.539 65H231.755ZM231.707 57.864C231.707 57.2347 231.504 56.7547 231.099 56.424C230.693 56.0827 230.101 55.912 229.323 55.912H227.211V59.816H229.323C230.101 59.816 230.693 59.6453 231.099 59.304C231.504 58.9627 231.707 58.4827 231.707 57.864ZM236.384 53.8H238.976V65H236.384V53.8ZM238.384 50.584H241.072L238.176 52.888H236.224L238.384 50.584ZM249.01 62.6H243.81L242.818 65H240.162L245.154 53.8H247.714L252.722 65H250.002L249.01 62.6ZM248.194 60.632L246.418 56.344L244.642 60.632H248.194ZM176.4 84.92V87H167.728V75.8H176.192V77.88H170.304V80.312H175.504V82.328H170.304V84.92H176.4ZM188.735 75.8V87H186.607L181.023 80.2V87H178.463V75.8H180.607L186.175 82.6V75.8H188.735ZM195.916 75.8H198.508V84.888H204.124V87H195.916V75.8ZM205.572 75.8H208.164V87H205.572V75.8ZM207.572 72.584H210.26L207.364 74.888H205.412L207.572 72.584ZM221.094 75.8V87H218.966L213.382 80.2V87H210.822V75.8H212.966L218.534 82.6V75.8H221.094ZM232.416 84.92V87H223.744V75.8H232.208V77.88H226.32V80.312H231.52V82.328H226.32V84.92H232.416ZM241.854 84.6H236.654L235.662 87H233.006L237.998 75.8H240.558L245.566 87H242.846L241.854 84.6ZM241.038 82.632L239.262 78.344L237.486 82.632H241.038Z" fill="#000500"/>
<path fill-rule="evenodd" clip-rule="evenodd" d="M113.6 96.0397C99.0196 96.0397 87.2 84.2201 87.2 69.6397C87.2 55.0594 99.0196 43.2397 113.6 43.2397C128.18 43.2397 140 55.0594 140 69.6397C140 84.2201 128.18 96.0397 113.6 96.0397ZM114.47 84.3275C123.125 84.324 130.165 77.2828 130.168 68.6294C130.17 64.4349 128.539 60.4908 125.575 57.5237C122.611 54.5564 118.669 52.9216 114.47 52.9197C105.817 52.9197 98.775 59.9616 98.7716 68.617C98.7704 71.3838 99.4933 74.0843 100.867 76.4651L98.6399 84.5997L106.962 82.4167C109.255 83.6674 111.836 84.3266 114.464 84.3275H114.47Z" fill="#000500"/>
<path fill-rule="evenodd" clip-rule="evenodd" d="M107.347 79.5749L102.408 80.8703L103.727 76.0555L103.416 75.5618C102.11 73.4844 101.42 71.0834 101.421 68.618C101.424 61.424 107.278 55.5713 114.475 55.5713C117.96 55.5725 121.236 56.9314 123.699 59.3977C126.163 61.864 127.518 65.1421 127.517 68.6286C127.514 75.8231 121.661 81.6764 114.469 81.6764H114.464C112.123 81.6755 109.826 81.0464 107.823 79.8577L107.347 79.5749ZM122.378 72.3624C122.28 72.1988 122.019 72.1007 121.626 71.9043C121.234 71.7079 119.306 70.7591 118.946 70.6281C118.587 70.4973 118.325 70.4319 118.064 70.8244C117.802 71.2171 117.05 72.1007 116.822 72.3624C116.593 72.6242 116.364 72.657 115.972 72.4606C115.58 72.2643 114.316 71.8501 112.817 70.5137C111.651 69.4736 110.864 68.1892 110.635 67.7965C110.407 67.4038 110.611 67.1916 110.807 66.996C110.984 66.8202 111.2 66.5377 111.396 66.3088C111.592 66.0798 111.657 65.9161 111.788 65.6545C111.919 65.3926 111.853 65.1636 111.755 64.9672C111.657 64.7709 110.873 62.8402 110.546 62.0548C110.227 61.2899 109.904 61.3935 109.663 61.3814C109.435 61.37 109.173 61.3675 108.912 61.3675C108.65 61.3675 108.225 61.4657 107.866 61.8584C107.506 62.2511 106.493 63.2001 106.493 65.1307C106.493 67.0614 107.898 68.9266 108.094 69.1883C108.291 69.4502 110.86 73.412 114.795 75.1111C115.731 75.5152 116.462 75.7566 117.031 75.9373C117.971 76.2359 118.826 76.1938 119.502 76.0928C120.255 75.9802 121.822 75.144 122.149 74.2277C122.476 73.3113 122.476 72.526 122.378 72.3624Z" fill="#000500"/>
<defs>
<filter id="filter0_d" x="0" y="0" width="368" height="138" filterUnits="userSpaceOnUse" color-interpolation-filters="sRGB">
<feFlood flood-opacity="0" result="BackgroundImageFix"/>
<feColorMatrix in="SourceAlpha" type="matrix" values="0 0 0 0 0 0 0 0 0 0 0 0 0 0 0 0 0 0 127 0"/>
<feOffset dy="4"/>
<feGaussianBlur stdDeviation="2"/>
<feColorMatrix type="matrix" values="0 0 0 0 0 0 0 0 0 0 0 0 0 0 0 0 0 0 0.25 0"/>
<feBlend mode="normal" in2="BackgroundImageFix" result="effect1_dropShadow"/>
<feBlend mode="normal" in="SourceGraphic" in2="effect1_dropShadow" result="shape"/>
</filter>
</defs>
</svg>
