<svg width="364" height="130" viewBox="0 0 364 130" fill="none" xmlns="http://www.w3.org/2000/svg">
<g filter="url(#filter0_d)">
<rect x="4" width="360" height="130" fill="#E6E6E6"/>
</g>
<path d="M179.248 55.912H175.664V53.8H185.424V55.912H181.84V65H179.248V55.912ZM193.632 62.6H188.432L187.44 65H184.784L189.776 53.8H192.336L197.344 65H194.624L193.632 62.6ZM192.816 60.632L191.04 56.344L189.264 60.632H192.816ZM205.642 65L203.482 61.88H203.354H201.098V65H198.506V53.8H203.354C204.346 53.8 205.205 53.9653 205.93 54.296C206.666 54.6267 207.231 55.096 207.626 55.704C208.021 56.312 208.218 57.032 208.218 57.864C208.218 58.696 208.015 59.416 207.61 60.024C207.215 60.6213 206.65 61.08 205.914 61.4L208.426 65H205.642ZM205.594 57.864C205.594 57.2347 205.391 56.7547 204.986 56.424C204.581 56.0827 203.989 55.912 203.21 55.912H201.098V59.816H203.21C203.989 59.816 204.581 59.6453 204.986 59.304C205.391 58.9627 205.594 58.4827 205.594 57.864ZM210.272 53.8H212.864V65H210.272V53.8ZM218.114 55.88V58.84H223.298V60.92H218.114V65H215.522V53.8H223.986V55.88H218.114ZM232.648 62.6H227.448L226.456 65H223.8L228.792 53.8H231.352L236.36 65H233.64L232.648 62.6ZM231.832 60.632L230.056 56.344L228.28 60.632H231.832ZM241.202 65.192C240.316 65.192 239.458 65.0747 238.626 64.84C237.804 64.5947 237.143 64.28 236.642 63.896L237.522 61.944C238.002 62.296 238.572 62.5787 239.234 62.792C239.895 63.0053 240.556 63.112 241.218 63.112C241.954 63.112 242.498 63.0053 242.85 62.792C243.202 62.568 243.378 62.2747 243.378 61.912C243.378 61.6453 243.271 61.4267 243.058 61.256C242.855 61.0747 242.588 60.9307 242.258 60.824C241.938 60.7173 241.5 60.6 240.946 60.472C240.092 60.2693 239.394 60.0667 238.85 59.864C238.306 59.6613 237.836 59.336 237.442 58.888C237.058 58.44 236.866 57.8427 236.866 57.096C236.866 56.4453 237.042 55.8587 237.394 55.336C237.746 54.8027 238.274 54.3813 238.978 54.072C239.692 53.7627 240.562 53.608 241.586 53.608C242.3 53.608 242.999 53.6933 243.682 53.864C244.364 54.0347 244.962 54.28 245.474 54.6L244.674 56.568C243.639 55.9813 242.604 55.688 241.57 55.688C240.844 55.688 240.306 55.8053 239.954 56.04C239.612 56.2747 239.442 56.584 239.442 56.968C239.442 57.352 239.639 57.64 240.034 57.832C240.439 58.0133 241.052 58.1947 241.874 58.376C242.727 58.5787 243.426 58.7813 243.97 58.984C244.514 59.1867 244.978 59.5067 245.362 59.944C245.756 60.3813 245.954 60.9733 245.954 61.72C245.954 62.36 245.772 62.9467 245.41 63.48C245.058 64.0027 244.524 64.4187 243.81 64.728C243.095 65.0373 242.226 65.192 241.202 65.192ZM252.256 53.8H257.344C258.56 53.8 259.632 54.0347 260.56 54.504C261.499 54.9627 262.224 55.6133 262.736 56.456C263.259 57.2987 263.52 58.28 263.52 59.4C263.52 60.52 263.259 61.5013 262.736 62.344C262.224 63.1867 261.499 63.8427 260.56 64.312C259.632 64.7707 258.56 65 257.344 65H252.256V53.8ZM257.216 62.872C258.336 62.872 259.227 62.5627 259.888 61.944C260.56 61.3147 260.896 60.4667 260.896 59.4C260.896 58.3333 260.56 57.4907 259.888 56.872C259.227 56.2427 258.336 55.928 257.216 55.928H254.848V62.872H257.216ZM274.147 62.92V65H265.475V53.8H273.939V55.88H268.051V58.312H273.251V60.328H268.051V62.92H274.147ZM185.6 84.92V87H176.928V75.8H185.392V77.88H179.504V80.312H184.704V82.328H179.504V84.92H185.6ZM197.934 75.8V87H195.806L190.222 80.2V87H187.662V75.8H189.806L195.374 82.6V75.8H197.934ZM211.29 75.8L206.442 87H203.882L199.05 75.8H201.85L205.258 83.8L208.714 75.8H211.29ZM212.225 75.8H214.817V87H212.225V75.8ZM214.225 72.584H216.913L214.017 74.888H212.065L214.225 72.584ZM222.899 87.192C221.736 87.192 220.686 86.9413 219.747 86.44C218.819 85.9387 218.088 85.2507 217.555 84.376C217.032 83.4907 216.771 82.4987 216.771 81.4C216.771 80.3013 217.032 79.3147 217.555 78.44C218.088 77.5547 218.819 76.8613 219.747 76.36C220.686 75.8587 221.736 75.608 222.899 75.608C224.062 75.608 225.107 75.8587 226.035 76.36C226.963 76.8613 227.694 77.5547 228.227 78.44C228.76 79.3147 229.027 80.3013 229.027 81.4C229.027 82.4987 228.76 83.4907 228.227 84.376C227.694 85.2507 226.963 85.9387 226.035 86.44C225.107 86.9413 224.062 87.192 222.899 87.192ZM222.899 84.984C223.56 84.984 224.158 84.8347 224.691 84.536C225.224 84.2267 225.64 83.8 225.939 83.256C226.248 82.712 226.403 82.0933 226.403 81.4C226.403 80.7067 226.248 80.088 225.939 79.544C225.64 79 225.224 78.5787 224.691 78.28C224.158 77.9707 223.56 77.816 222.899 77.816C222.238 77.816 221.64 77.9707 221.107 78.28C220.574 78.5787 220.152 79 219.843 79.544C219.544 80.088 219.395 80.7067 219.395 81.4C219.395 82.0933 219.544 82.712 219.843 83.256C220.152 83.8 220.574 84.2267 221.107 84.536C221.64 84.8347 222.238 84.984 222.899 84.984Z" fill="#000500"/>
<path fill-rule="evenodd" clip-rule="evenodd" d="M130.67 54.12L135.828 64.4373L143.6 69.6185V79.32H140.322C139.169 76.0578 136.057 73.7205 132.4 73.7205C128.743 73.7205 125.632 76.0577 124.478 79.32H112.322C111.169 76.0577 108.057 73.7205 104.4 73.7205C100.743 73.7205 97.6315 76.0578 96.4782 79.32H93.2001V54.12H130.67ZM143.6 84.92H140.322C139.169 88.1828 136.058 90.5205 132.4 90.5205C128.743 90.5205 125.631 88.1828 124.478 84.92H112.322C111.169 88.1828 108.058 90.5205 104.4 90.5205C100.742 90.5205 97.6308 88.1828 96.4778 84.92H93.2001C90.1073 84.92 87.6001 82.4128 87.6001 79.32V54.12C87.6001 51.0272 90.1073 48.52 93.2001 48.52H130.67C132.791 48.52 134.73 49.7184 135.678 51.6156L140.172 60.6027L149.2 66.6215V79.32C149.2 82.4128 146.693 84.92 143.6 84.92ZM107.2 82.12C107.2 83.6664 105.947 84.92 104.4 84.92C102.854 84.92 101.6 83.6664 101.6 82.12C101.6 80.5736 102.854 79.32 104.4 79.32C105.947 79.32 107.2 80.5736 107.2 82.12ZM135.2 82.12C135.2 83.6664 133.947 84.92 132.4 84.92C130.854 84.92 129.6 83.6664 129.6 82.12C129.6 80.5736 130.854 79.32 132.4 79.32C133.947 79.32 135.2 80.5736 135.2 82.12Z" fill="#000500"/>
<defs>
<filter id="filter0_d" x="0" y="0" width="368" height="138" filterUnits="userSpaceOnUse" color-interpolation-filters="sRGB">
<feFlood flood-opacity="0" result="BackgroundImageFix"/>
<feColorMatrix in="SourceAlpha" type="matrix" values="0 0 0 0 0 0 0 0 0 0 0 0 0 0 0 0 0 0 127 0"/>
<feOffset dy="4"/>
<feGaussianBlur stdDeviation="2"/>
<feColorMatrix type="matrix" values="0 0 0 0 0 0 0 0 0 0 0 0 0 0 0 0 0 0 0.25 0"/>
<feBlend mode="normal" in2="BackgroundImageFix" result="effect1_dropShadow"/>
<feBlend mode="normal" in="SourceGraphic" in2="effect1_dropShadow" result="shape"/>
</filter>
</defs>
</svg>
