<svg width="31" height="16" viewBox="0 0 31 16" fill="none" xmlns="http://www.w3.org/2000/svg">
<path d="M30.1481 8.02567L26.2839 3.61429C26.1578 3.4705 25.9759 3.38793 25.7847 3.38793H22.567V0.663585C22.567 0.297081 22.2698 0 21.9034 0H8.19792C7.83148 0 7.53433 0.297081 7.53433 0.663585V1.55899H1.15211C0.785671 1.55899 0.488525 1.85607 0.488525 2.22257C0.488525 2.58908 0.785671 2.88616 1.15211 2.88616H7.53433V11.4882H3.69258C3.32615 11.4882 3.029 11.7853 3.029 12.1518C3.029 12.5183 3.32615 12.8154 3.69258 12.8154H7.53433V13.4898C7.53433 13.8563 7.83148 14.1534 8.19792 14.1534H9.58299C9.8748 15.2164 10.8491 16 12.0036 16C13.158 16 14.1323 15.2164 14.4242 14.1534H23.2786V14.1533C23.5704 15.2164 24.5447 15.9999 25.6992 15.9999C26.8537 15.9999 27.8279 15.2164 28.1198 14.1533H29.649C30.0154 14.1533 30.3125 13.8562 30.3125 13.4897V8.46283C30.3125 8.30206 30.254 8.14662 30.1481 8.02567ZM12.0036 14.6728C11.3512 14.6728 10.8206 14.1421 10.8206 13.4898C10.8206 12.8375 11.3512 12.3067 12.0036 12.3067C12.6559 12.3067 13.1866 12.8375 13.1866 13.4898C13.1866 14.1421 12.6559 14.6728 12.0036 14.6728ZM14.4241 12.8262C14.1322 11.7631 13.1579 10.9796 12.0034 10.9796C10.8489 10.9796 9.87474 11.7631 9.58286 12.8262H8.86137V1.3271H21.2395V12.8262H14.4241ZM25.6991 14.6728C25.0467 14.6728 24.5161 14.1421 24.5161 13.4898C24.5161 12.8375 25.0467 12.3067 25.6991 12.3067C26.3514 12.3067 26.8821 12.8375 26.8821 13.4898C26.8821 14.1421 26.3515 14.6728 25.6991 14.6728ZM28.9853 12.8262H28.1197C27.8279 11.7631 26.8536 10.9796 25.6991 10.9796C24.5446 10.9796 23.5704 11.7631 23.2785 12.8262H22.5668V4.7151H25.4836L28.9852 8.71241V12.8262H28.9853Z" fill="black"/>
</svg>
