<svg width="23" height="22" viewBox="0 0 23 22" fill="none" xmlns="http://www.w3.org/2000/svg">
<path fill-rule="evenodd" clip-rule="evenodd" d="M4.47837 2.2028C4.28301 2.20237 4.09469 2.22449 3.91573 2.26652C3.67041 1.72583 3.34637 1.24074 2.97782 0.872183C2.35228 0.246643 1.36571 0 0 0V2.2C0.834293 2.2 1.31439 2.32002 1.42218 2.42782C1.83795 2.84359 2.2 3.68837 2.2 4.4L2.21106 4.55556L3.28891 12.1006C1.48539 12.1941 0.0882174 13.5947 0.00135144 15.3455L0 16.5C0.106503 18.3083 1.49903 19.6994 3.23756 19.7982L3.48728 19.7986C3.93991 21.081 5.16264 22 6.6 22C8.03684 22 9.2592 21.0817 9.71222 19.8H12.2878C12.7408 21.0817 13.9632 22 15.4 22C17.2225 22 18.7 20.5225 18.7 18.7C18.7 16.8775 17.2225 15.4 15.4 15.4C13.9632 15.4 12.7408 16.3183 12.2878 17.6H9.71222C9.2592 16.3183 8.03684 15.4 6.6 15.4C5.16316 15.4 3.9408 16.3183 3.48778 17.6H3.3C2.73901 17.5663 2.23579 17.0636 2.19803 16.4341L2.2 15.4C2.22966 14.8294 2.72944 14.3297 3.35451 14.2986L5.52606 14.2992L5.5418 14.3H16.6285L16.7909 14.2485C17.6249 13.9838 18.2926 13.3558 18.6087 12.5428L18.7246 12.3134L19.1011 11.5675C19.4907 10.7953 19.8802 10.0218 20.2598 9.26618C21.1895 7.41518 21.7743 6.23883 21.9038 5.94996C22.5688 4.4665 21.2217 3.32471 19.8448 3.3004L4.47837 2.2028ZM16.2463 12.1H5.62412C5.55349 12.0804 5.49967 12.0205 5.48913 11.946L4.41125 4.40082L19.6827 5.49443C19.4155 6.03937 18.9297 7.01269 18.2938 8.27871L18.2779 8.31044C17.9149 9.03306 17.5259 9.80547 17.1369 10.5766L16.7608 11.3216L16.6183 11.6037L16.5646 11.7285C16.5072 11.8885 16.3931 12.0201 16.2463 12.1ZM15.3997 19.8C16.0073 19.8 16.4997 19.3075 16.4997 18.7C16.4997 18.0925 16.0073 17.6 15.3997 17.6C14.7922 17.6 14.2997 18.0925 14.2997 18.7C14.2997 19.3075 14.7922 19.8 15.3997 19.8ZM7.7 18.7C7.7 19.3075 7.20751 19.8 6.6 19.8C5.99249 19.8 5.5 19.3075 5.5 18.7C5.5 18.0925 5.99249 17.6 6.6 17.6C7.20751 17.6 7.7 18.0925 7.7 18.7Z" fill="white"/>
</svg>
