<svg width="33" height="33" viewBox="0 0 33 33" fill="none" xmlns="http://www.w3.org/2000/svg">
<path fill-rule="evenodd" clip-rule="evenodd" d="M7.11178 4.00397C6.8327 4.00336 6.56366 4.03495 6.30801 4.09501C5.95756 3.32258 5.49464 2.6296 4.96814 2.10309C4.07451 1.20946 2.66512 0.857117 0.714111 0.857117V3.99997C1.90596 3.99997 2.59181 4.17144 2.7458 4.32543C3.33975 4.91938 3.85697 6.12621 3.85697 7.14283L3.87276 7.36506L5.41256 18.1436C2.8361 18.2773 0.840136 20.2781 0.716042 22.7792L0.714111 24.4285C0.866259 27.0119 2.85558 28.9991 5.3392 29.1403L5.69595 29.1408C6.34256 30.9729 8.08931 32.2857 10.1427 32.2857C12.1953 32.2857 13.9415 30.9738 14.5887 29.1428H18.2681C18.9152 30.9738 20.6615 32.2857 22.7141 32.2857C25.3177 32.2857 27.4284 30.175 27.4284 27.5714C27.4284 24.9678 25.3177 22.8571 22.7141 22.8571C20.6615 22.8571 18.9152 24.169 18.2681 26H14.5887C13.9415 24.169 12.1953 22.8571 10.1427 22.8571C8.09005 22.8571 6.34382 24.169 5.69665 26H5.4284C4.62698 25.9519 3.9081 25.2337 3.85415 24.3344L3.85697 22.8571C3.89934 22.042 4.61331 21.3281 5.50627 21.2838L8.60848 21.2845L8.63097 21.2857H24.4692L24.7011 21.2121C25.8926 20.834 26.8464 19.9368 27.298 18.7754L27.4635 18.4477L28.0014 17.3821C28.5579 16.279 29.1144 15.174 29.6566 14.0945C30.9849 11.4502 31.8202 9.76973 32.0052 9.35706C32.9552 7.23783 31.0308 5.6067 29.0638 5.57197L7.11178 4.00397ZM23.9232 18.1428H8.74857C8.64767 18.1148 8.57078 18.0293 8.55573 17.9229L7.01589 7.144L28.8322 8.7063C28.4505 9.48478 27.7566 10.8752 26.8481 12.6838L26.8254 12.7292C26.3068 13.7615 25.7511 14.8649 25.1954 15.9665L24.6581 17.0308L24.4545 17.4339L24.3778 17.6121C24.2958 17.8408 24.1328 18.0287 23.9232 18.1428ZM22.714 29.1428C23.5819 29.1428 24.2855 28.4393 24.2855 27.5714C24.2855 26.7035 23.5819 26 22.714 26C21.8462 26 21.1426 26.7035 21.1426 27.5714C21.1426 28.4393 21.8462 29.1428 22.714 29.1428ZM11.7141 27.5714C11.7141 28.4393 11.0105 29.1428 10.1426 29.1428C9.27475 29.1428 8.5712 28.4393 8.5712 27.5714C8.5712 26.7035 9.27475 26 10.1426 26C11.0105 26 11.7141 26.7035 11.7141 27.5714Z" fill="#000500"/>
</svg>
