<svg width="281" height="100" viewBox="0 0 281 100" fill="none" xmlns="http://www.w3.org/2000/svg">
<path d="M135.248 37.912H131.664V35.8H141.424V37.912H137.84V47H135.248V37.912ZM149.632 44.6H144.432L143.44 47H140.784L145.776 35.8H148.336L153.344 47H150.624L149.632 44.6ZM148.816 42.632L147.04 38.344L145.264 42.632H148.816ZM161.642 47L159.482 43.88H159.354H157.098V47H154.506V35.8H159.354C160.346 35.8 161.205 35.9653 161.93 36.296C162.666 36.6267 163.231 37.096 163.626 37.704C164.021 38.312 164.218 39.032 164.218 39.864C164.218 40.696 164.015 41.416 163.61 42.024C163.215 42.6213 162.65 43.08 161.914 43.4L164.426 47H161.642ZM161.594 39.864C161.594 39.2347 161.391 38.7547 160.986 38.424C160.581 38.0827 159.989 37.912 159.21 37.912H157.098V41.816H159.21C159.989 41.816 160.581 41.6453 160.986 41.304C161.391 40.9627 161.594 40.4827 161.594 39.864ZM166.272 35.8H168.864V47H166.272V35.8ZM174.114 37.88V40.84H179.298V42.92H174.114V47H171.522V35.8H179.986V37.88H174.114ZM188.648 44.6H183.448L182.456 47H179.8L184.792 35.8H187.352L192.36 47H189.64L188.648 44.6ZM187.832 42.632L186.056 38.344L184.28 42.632H187.832ZM197.202 47.192C196.316 47.192 195.458 47.0747 194.626 46.84C193.804 46.5947 193.143 46.28 192.642 45.896L193.522 43.944C194.002 44.296 194.572 44.5787 195.234 44.792C195.895 45.0053 196.556 45.112 197.218 45.112C197.954 45.112 198.498 45.0053 198.85 44.792C199.202 44.568 199.378 44.2747 199.378 43.912C199.378 43.6453 199.271 43.4267 199.058 43.256C198.855 43.0747 198.588 42.9307 198.258 42.824C197.938 42.7173 197.5 42.6 196.946 42.472C196.092 42.2693 195.394 42.0667 194.85 41.864C194.306 41.6613 193.836 41.336 193.442 40.888C193.058 40.44 192.866 39.8427 192.866 39.096C192.866 38.4453 193.042 37.8587 193.394 37.336C193.746 36.8027 194.274 36.3813 194.978 36.072C195.692 35.7627 196.562 35.608 197.586 35.608C198.3 35.608 198.999 35.6933 199.682 35.864C200.364 36.0347 200.962 36.28 201.474 36.6L200.674 38.568C199.639 37.9813 198.604 37.688 197.57 37.688C196.844 37.688 196.306 37.8053 195.954 38.04C195.612 38.2747 195.442 38.584 195.442 38.968C195.442 39.352 195.639 39.64 196.034 39.832C196.439 40.0133 197.052 40.1947 197.874 40.376C198.727 40.5787 199.426 40.7813 199.97 40.984C200.514 41.1867 200.978 41.5067 201.362 41.944C201.756 42.3813 201.954 42.9733 201.954 43.72C201.954 44.36 201.772 44.9467 201.41 45.48C201.058 46.0027 200.524 46.4187 199.81 46.728C199.095 47.0373 198.226 47.192 197.202 47.192ZM208.256 35.8H213.344C214.56 35.8 215.632 36.0347 216.56 36.504C217.499 36.9627 218.224 37.6133 218.736 38.456C219.259 39.2987 219.52 40.28 219.52 41.4C219.52 42.52 219.259 43.5013 218.736 44.344C218.224 45.1867 217.499 45.8427 216.56 46.312C215.632 46.7707 214.56 47 213.344 47H208.256V35.8ZM213.216 44.872C214.336 44.872 215.227 44.5627 215.888 43.944C216.56 43.3147 216.896 42.4667 216.896 41.4C216.896 40.3333 216.56 39.4907 215.888 38.872C215.227 38.2427 214.336 37.928 213.216 37.928H210.848V44.872H213.216ZM230.147 44.92V47H221.475V35.8H229.939V37.88H224.051V40.312H229.251V42.328H224.051V44.92H230.147ZM141.6 66.92V69H132.928V57.8H141.392V59.88H135.504V62.312H140.704V64.328H135.504V66.92H141.6ZM153.934 57.8V69H151.806L146.222 62.2V69H143.662V57.8H145.806L151.374 64.6V57.8H153.934ZM167.29 57.8L162.442 69H159.882L155.05 57.8H157.85L161.258 65.8L164.714 57.8H167.29ZM168.225 57.8H170.817V69H168.225V57.8ZM170.225 54.584H172.913L170.017 56.888H168.065L170.225 54.584ZM178.899 69.192C177.736 69.192 176.686 68.9413 175.747 68.44C174.819 67.9387 174.088 67.2507 173.555 66.376C173.032 65.4907 172.771 64.4987 172.771 63.4C172.771 62.3013 173.032 61.3147 173.555 60.44C174.088 59.5547 174.819 58.8613 175.747 58.36C176.686 57.8587 177.736 57.608 178.899 57.608C180.062 57.608 181.107 57.8587 182.035 58.36C182.963 58.8613 183.694 59.5547 184.227 60.44C184.76 61.3147 185.027 62.3013 185.027 63.4C185.027 64.4987 184.76 65.4907 184.227 66.376C183.694 67.2507 182.963 67.9387 182.035 68.44C181.107 68.9413 180.062 69.192 178.899 69.192ZM178.899 66.984C179.56 66.984 180.158 66.8347 180.691 66.536C181.224 66.2267 181.64 65.8 181.939 65.256C182.248 64.712 182.403 64.0933 182.403 63.4C182.403 62.7067 182.248 62.088 181.939 61.544C181.64 61 181.224 60.5787 180.691 60.28C180.158 59.9707 179.56 59.816 178.899 59.816C178.238 59.816 177.64 59.9707 177.107 60.28C176.574 60.5787 176.152 61 175.843 61.544C175.544 62.088 175.395 62.7067 175.395 63.4C175.395 64.0933 175.544 64.712 175.843 65.256C176.152 65.8 176.574 66.2267 177.107 66.536C177.64 66.8347 178.238 66.984 178.899 66.984Z" fill="#000500"/>
<path fill-rule="evenodd" clip-rule="evenodd" d="M86.6696 36.12L91.8282 46.4373L99.6001 51.6185V61.32H96.322C95.1687 58.0578 92.0574 55.7205 88.4002 55.7205C84.743 55.7205 81.6317 58.0577 80.4784 61.32H68.3218C67.1685 58.0577 64.0572 55.7205 60.4 55.7205C56.7428 55.7205 53.6315 58.0578 52.4782 61.32H49.2001V36.12H86.6696ZM99.6001 66.92H96.3224C95.1694 70.1828 92.0578 72.5205 88.4002 72.5205C84.7426 72.5205 81.6309 70.1828 80.478 66.92H68.3222C67.1693 70.1828 64.0576 72.5205 60.4 72.5205C56.7424 72.5205 53.6308 70.1828 52.4778 66.92H49.2001C46.1073 66.92 43.6001 64.4128 43.6001 61.32V36.12C43.6001 33.0272 46.1073 30.52 49.2001 30.52H86.6696C88.7907 30.52 90.7298 31.7184 91.6784 33.6156L96.172 42.6027L105.2 48.6215V61.32C105.2 64.4128 102.693 66.92 99.6001 66.92ZM63.2001 64.12C63.2001 65.6664 61.9465 66.92 60.4001 66.92C58.8537 66.92 57.6001 65.6664 57.6001 64.12C57.6001 62.5736 58.8537 61.32 60.4001 61.32C61.9465 61.32 63.2001 62.5736 63.2001 64.12ZM91.2003 64.12C91.2003 65.6664 89.9467 66.92 88.4003 66.92C86.8539 66.92 85.6003 65.6664 85.6003 64.12C85.6003 62.5736 86.8539 61.32 88.4003 61.32C89.9467 61.32 91.2003 62.5736 91.2003 64.12Z" fill="#000500"/>
</svg>
