<svg width="16" height="15" viewBox="0 0 16 15" fill="none" xmlns="http://www.w3.org/2000/svg">
<path opacity="0.75" d="M15.1009 5.11399L10.7532 4.70288C10.4791 4.67796 10.2423 4.50355 10.1303 4.24194L8.57304 0.467173C8.32389 -0.155724 7.43925 -0.155724 7.19009 0.467173L5.6453 4.24194C5.54564 4.50355 5.29648 4.67796 5.0224 4.70288L0.674573 5.11399C0.0267594 5.17628 -0.234858 5.98605 0.251003 6.42208L3.52745 9.29987C3.73923 9.48674 3.82644 9.76081 3.76415 10.0349L2.77997 14.0711C2.63047 14.7066 3.31566 15.2297 3.88873 14.8935L7.51399 12.7631C7.75069 12.626 8.03723 12.626 8.27393 12.7631L11.8993 14.8935C12.4724 15.2297 13.1576 14.7191 13.008 14.0711L12.0362 10.0349C11.9739 9.76081 12.0611 9.48674 12.2729 9.29987L15.5494 6.42208C16.0228 5.98605 15.7487 5.17628 15.1009 5.11399Z" fill="#000500"/>
</svg>
