<svg width="53" height="54" viewBox="0 0 53 54" fill="none" xmlns="http://www.w3.org/2000/svg">
<path fill-rule="evenodd" clip-rule="evenodd" d="M26.5999 53.0397C12.0196 53.0397 0.199951 41.2201 0.199951 26.6397C0.199951 12.0594 12.0196 0.239746 26.5999 0.239746C41.1803 0.239746 52.9999 12.0594 52.9999 26.6397C52.9999 41.2201 41.1803 53.0397 26.5999 53.0397ZM27.4701 41.3275C36.1254 41.324 43.1648 34.2828 43.1683 25.6294C43.17 21.4349 41.5386 17.4908 38.5748 14.5237C35.611 11.5564 31.6695 9.92156 27.47 9.91975C18.8172 9.91975 11.775 16.9616 11.7716 25.617C11.7704 28.3838 12.4933 31.0843 13.867 33.4651L11.6399 41.5997L19.9618 39.4167C22.2547 40.6674 24.8363 41.3266 27.4636 41.3275H27.4701Z" fill="#000500"/>
<path fill-rule="evenodd" clip-rule="evenodd" d="M20.3467 36.5749L15.4084 37.8703L16.7265 33.0555L16.4163 32.5618C15.1102 30.4844 14.4204 28.0834 14.4214 25.618C14.4242 18.424 20.2775 12.5713 27.4746 12.5713C30.9597 12.5725 34.2357 13.9314 36.6991 16.3977C39.1626 18.864 40.5184 22.1421 40.5171 25.6286C40.5142 32.8231 34.661 38.6764 27.4695 38.6764H27.4642C25.1229 38.6755 22.8265 38.0464 20.8232 36.8577L20.3467 36.5749ZM35.3781 29.3624C35.2801 29.1988 35.0187 29.1007 34.6264 28.9043C34.2342 28.7079 32.3057 27.7591 31.9461 27.6281C31.5866 27.4973 31.325 27.4319 31.0636 27.8244C30.8021 28.2171 30.0504 29.1007 29.8216 29.3624C29.5928 29.6242 29.3639 29.657 28.9719 29.4606C28.5796 29.2643 27.3157 28.8501 25.8175 27.5137C24.6514 26.4736 23.8642 25.1892 23.6354 24.7965C23.4066 24.4038 23.611 24.1916 23.8073 23.996C23.9838 23.8202 24.1996 23.5377 24.3957 23.3088C24.5918 23.0798 24.6572 22.9161 24.788 22.6545C24.9187 22.3926 24.8533 22.1636 24.7553 21.9672C24.6572 21.7709 23.8728 19.8402 23.5459 19.0548C23.2275 18.2899 22.9041 18.3935 22.6634 18.3814C22.4348 18.37 22.173 18.3675 21.9116 18.3675C21.6501 18.3675 21.2251 18.4657 20.8656 18.8584C20.5061 19.2511 19.4928 20.2001 19.4928 22.1307C19.4928 24.0614 20.8983 25.9266 21.0944 26.1883C21.2905 26.4502 23.8603 30.412 27.7951 32.1111C28.7309 32.5152 29.4615 32.7566 30.0312 32.9373C30.9708 33.2359 31.826 33.1938 32.5018 33.0928C33.2555 32.9802 34.8225 32.144 35.1495 31.2277C35.4762 30.3113 35.4762 29.526 35.3781 29.3624Z" fill="#000500"/>
</svg>
