<svg width="63" height="43" viewBox="0 0 63 43" fill="none" xmlns="http://www.w3.org/2000/svg">
<path fill-rule="evenodd" clip-rule="evenodd" d="M43.6696 6.12002L48.8282 16.4373L56.6001 21.6185V31.32H53.322C52.1687 28.0578 49.0574 25.7205 45.4002 25.7205C41.743 25.7205 38.6317 28.0577 37.4784 31.32H25.3218C24.1685 28.0577 21.0572 25.7205 17.4 25.7205C13.7428 25.7205 10.6315 28.0578 9.47819 31.32H6.2001V6.12002H43.6696ZM56.6001 36.92H53.3224C52.1694 40.1828 49.0578 42.5205 45.4002 42.5205C41.7426 42.5205 38.6309 40.1828 37.478 36.92H25.3222C24.1693 40.1828 21.0576 42.5205 17.4 42.5205C13.7424 42.5205 10.6308 40.1828 9.47781 36.92H6.2001C3.1073 36.92 0.600098 34.4128 0.600098 31.32V6.12002C0.600098 3.02723 3.1073 0.52002 6.2001 0.52002H43.6696C45.7907 0.52002 47.7298 1.71843 48.6784 3.61562L53.172 12.6027L62.2001 18.6215V31.32C62.2001 34.4128 59.6929 36.92 56.6001 36.92ZM20.2001 34.12C20.2001 35.6664 18.9465 36.92 17.4001 36.92C15.8537 36.92 14.6001 35.6664 14.6001 34.12C14.6001 32.5736 15.8537 31.32 17.4001 31.32C18.9465 31.32 20.2001 32.5736 20.2001 34.12ZM48.2003 34.12C48.2003 35.6664 46.9467 36.92 45.4003 36.92C43.8539 36.92 42.6003 35.6664 42.6003 34.12C42.6003 32.5736 43.8539 31.32 45.4003 31.32C46.9467 31.32 48.2003 32.5736 48.2003 34.12Z" fill="#000500"/>
</svg>
