<svg width="52" height="54" viewBox="0 0 52 54" fill="none" xmlns="http://www.w3.org/2000/svg">
<path fill-rule="evenodd" clip-rule="evenodd" d="M10.6393 53.28C13.97 53.28 16.8035 51.1513 17.8536 48.1803H39.9626C46.2997 48.1803 51.4369 43.043 51.4369 36.706C51.4369 30.3689 46.2997 25.2316 39.9626 25.2316H11.9143C8.39366 25.2316 5.53964 22.3776 5.53964 18.857C5.53964 15.3364 8.39366 12.4824 11.9143 12.4824H19.7826L16.4859 15.7791L20.0919 19.3851L29.5445 9.93254L20.0919 0.47998L16.4859 4.08601L19.7826 7.38269H11.9143C5.57717 7.38269 0.439941 12.5199 0.439941 18.857C0.439941 25.1941 5.57717 30.3313 11.9143 30.3313H39.9626C43.4832 30.3313 46.3372 33.1853 46.3372 36.706C46.3372 40.2266 43.4832 43.0806 39.9626 43.0806H17.8536C16.8035 40.1095 13.97 37.9809 10.6393 37.9809C6.41461 37.9809 2.98979 41.4057 2.98979 45.6304C2.98979 49.8552 6.41461 53.28 10.6393 53.28ZM8.08939 45.6303C8.08939 44.2221 9.231 43.0805 10.6392 43.0805C12.0475 43.0805 13.1891 44.2221 13.1891 45.6303C13.1891 47.0386 12.0475 48.1802 10.6392 48.1802C9.231 48.1802 8.08939 47.0386 8.08939 45.6303ZM41.2376 2.28269C45.4623 2.28269 48.8872 5.70751 48.8872 9.93224C48.8872 14.157 45.4623 17.5818 41.2376 17.5818C37.0129 17.5818 33.5881 14.157 33.5881 9.93224C33.5881 5.70751 37.0129 2.28269 41.2376 2.28269ZM38.6879 9.93233C38.6879 8.52409 39.8295 7.38248 41.2377 7.38248C42.646 7.38248 43.7876 8.52409 43.7876 9.93233C43.7876 11.3406 42.646 12.4822 41.2377 12.4822C39.8295 12.4822 38.6879 11.3406 38.6879 9.93233Z" fill="#000500"/>
</svg>
