<svg width="55" height="57" viewBox="0 0 55 57" fill="none" xmlns="http://www.w3.org/2000/svg">
<path fill-rule="evenodd" clip-rule="evenodd" d="M49.5565 11.7211H38.7032V6.34335C38.7032 3.22757 36.3094 0.639648 33.2766 0.639648H6.14322C3.11038 0.639648 0.716553 3.22757 0.716553 6.34335V50.3433C0.716553 53.4591 3.11038 56.0471 6.14322 56.0471H33.2766C36.3094 56.0471 38.7032 53.4591 38.7032 50.3433V44.9656H49.5565C52.5536 44.9656 54.9832 42.4849 54.9832 39.4248V17.2619C54.9832 14.2018 52.5536 11.7211 49.5565 11.7211ZM38.7031 25.5729H49.5565V39.4247H38.7031V25.5729ZM33.2766 50.343V6.34302C33.2766 6.28776 33.2696 6.24942 33.2649 6.22389C33.259 6.19199 33.2568 6.18006 33.2766 6.18006H6.14331C6.16318 6.18006 6.16098 6.19199 6.15509 6.22389C6.15038 6.24942 6.14331 6.28776 6.14331 6.34302V50.343C6.14331 50.3983 6.15038 50.4366 6.15509 50.4622C6.16098 50.4941 6.16318 50.506 6.14331 50.506H33.2766C33.2568 50.506 33.259 50.4941 33.2649 50.4622C33.2696 50.4366 33.2766 50.3983 33.2766 50.343ZM8.85669 42.1952V47.7359H14.2834V42.1952H8.85669ZM16.9965 47.7359V42.1952H22.4232V47.7359H16.9965ZM25.1367 42.1952V47.7359H30.5633V42.1952H25.1367ZM8.85669 39.4247V33.8839H14.2834V39.4247H8.85669ZM16.9965 33.8839V39.4247H22.4232V33.8839H16.9965ZM25.1367 39.4247V33.8839H30.5633V39.4247H25.1367ZM30.5634 31.1135V8.95057H8.85669V31.1135H30.5634ZM14.2833 14.4913V25.5728H25.1366V14.4913H14.2833ZM49.5565 17.2619V20.0322H38.7031V17.2619H49.5565Z" fill="#000500"/>
</svg>
