<svg width="35" height="35" viewBox="0 0 35 35" fill="none" xmlns="http://www.w3.org/2000/svg">
<path d="M0 17.5C0 7.83502 7.83502 0 17.5 0C27.165 0 35 7.83502 35 17.5C35 27.165 27.165 35 17.5 35C7.83502 35 0 27.165 0 17.5Z" fill="#000500"/>
<path fill-rule="evenodd" clip-rule="evenodd" d="M12.6283 10.8082C12.6283 11.9524 11.7671 12.8679 10.3843 12.8679H10.3589C9.0275 12.8679 8.16675 11.9524 8.16675 10.8082C8.16675 9.63988 9.05371 8.75 10.4104 8.75C11.7671 8.75 12.6026 9.63988 12.6283 10.8082ZM12.3672 14.4941V26.4099H8.40128V14.4941H12.3672ZM26.6695 26.41L26.6696 19.5778C26.6696 15.9178 24.7131 14.2143 22.1034 14.2143C19.9978 14.2143 19.0551 15.3709 18.5287 16.1822V14.4944H14.5623C14.6146 15.6126 14.5623 26.4103 14.5623 26.4103H18.5287V19.7555C18.5287 19.3994 18.5544 19.0441 18.6593 18.7891C18.9459 18.0777 19.5985 17.3411 20.6942 17.3411C22.1299 17.3411 22.7037 18.4337 22.7037 20.035V26.41H26.6695Z" fill="white"/>
</svg>
