<svg width="35" height="35" viewBox="0 0 35 35" fill="none" xmlns="http://www.w3.org/2000/svg">
<path d="M0 17.5C0 7.83502 7.83502 0 17.5 0C27.165 0 35 7.83502 35 17.5C35 27.165 27.165 35 17.5 35C7.83502 35 0 27.165 0 17.5Z" fill="#000500"/>
<path d="M26.4433 13.1781C26.2287 12.3534 25.5961 11.704 24.7929 11.4836C23.3373 11.083 17.5001 11.083 17.5001 11.083C17.5001 11.083 11.6628 11.083 10.2071 11.4836C9.40394 11.704 8.7714 12.3534 8.55673 13.1781C8.16675 14.6727 8.16675 17.7913 8.16675 17.7913C8.16675 17.7913 8.16675 20.9098 8.55673 22.4046C8.7714 23.2293 9.40394 23.8787 10.2071 24.0992C11.6628 24.4997 17.5001 24.4997 17.5001 24.4997C17.5001 24.4997 23.3373 24.4997 24.7929 24.0992C25.5961 23.8787 26.2287 23.2293 26.4433 22.4046C26.8334 20.9098 26.8334 17.7913 26.8334 17.7913C26.8334 17.7913 26.8334 14.6727 26.4433 13.1781Z" fill="white"/>
<path d="M15.75 21.0003V15.167L20.4167 18.0838L15.75 21.0003Z" fill="#000500"/>
</svg>
